<svg width="36" height="29" viewBox="0 0 36 29" fill="none" xmlns="http://www.w3.org/2000/svg">
<path d="M35.1543 15.7967C34.961 14.0869 32.9401 12.9274 31.1975 12.9602C30.906 11.4371 29.8644 10.1105 28.4756 9.52751C28.2824 9.4489 27.4537 9.14756 27.1032 9.14756H19.0751V7.03585C20.1397 6.6821 20.9618 5.84359 21.3024 4.7496C21.6627 3.58354 21.3974 2.34215 20.5949 1.43157C19.835 0.576684 18.6919 0.150877 17.5422 0.298271C16.3925 0.442391 15.3968 1.13351 14.8793 2.1489C14.3978 3.09222 14.3683 4.18622 14.8007 5.1492C15.2036 6.04667 15.9536 6.72469 16.8806 7.03585V9.15083H8.91799C8.55115 9.15083 7.73229 9.42269 7.48008 9.52751C6.11422 10.0942 5.05297 11.4502 4.75818 12.9602C3.01565 12.9405 0.994705 14.0869 0.801454 15.7967V15.8327C0.801454 16.5828 0.778525 17.3034 0.758873 17.9978C0.719568 19.403 0.680262 20.7328 0.801454 22.2428C0.857136 22.9404 1.25346 23.6185 1.92165 24.1491C2.72414 24.7878 3.80176 25.1383 4.75818 25.0989C5.10866 27.1133 6.76931 28.6888 8.85249 28.9017L14.519 28.9345H21.4367L27.1327 28.8985C29.1831 28.6921 30.8438 27.1166 31.1943 25.0957C32.1572 25.1415 33.2447 24.778 34.0439 24.1392C34.7121 23.6054 35.0953 22.9503 35.151 22.2428C35.3213 20.0646 35.3246 18.1386 35.151 15.7934L35.1543 15.7967ZM33.5683 21.9237C33.5552 22.1137 33.4635 22.2741 33.2965 22.4117C32.9493 22.7 31.738 22.9011 31.2401 22.9011V15.1547C31.9247 15.1547 33.4111 15.3269 33.552 15.8215C33.6601 17.8327 33.7354 19.68 33.5683 21.9237ZM16.8151 3.20031C16.9952 2.80071 17.3392 2.53212 17.7584 2.46661C17.8305 2.45351 17.9025 2.45024 17.9746 2.45024C18.4004 2.45024 18.7869 2.65004 19.0391 3.01034C19.3241 3.41977 19.3503 3.92746 19.1046 4.36637C18.8852 4.75942 18.4823 5.00508 18.027 5.01818C17.5652 5.02801 17.1426 4.81183 16.897 4.42533C16.6644 4.06175 16.6349 3.60319 16.8184 3.19704L16.8151 3.20031ZM29.0521 24.5585C28.9702 25.6099 28.0564 26.5926 27.0574 26.7105C25.3967 26.9037 23.248 26.9004 21.8298 26.8972H14.7843C14.5288 26.8972 14.2537 26.8972 13.9589 26.8972C12.3605 26.907 10.369 26.9168 8.85576 26.7006C7.87313 26.5598 6.96256 25.5608 6.90687 24.5847C6.90687 24.5847 6.90687 21.5815 6.90687 18.7015C6.90687 15.8215 6.90687 13.4318 6.90687 13.4318C7.07392 12.2887 8.0107 11.4305 9.17348 11.3388H26.815C28.0073 11.4567 28.9277 12.3477 29.0521 13.4875C29.2912 17.929 29.2912 21.5516 29.0521 24.5585ZM4.7156 15.1547V22.9011C4.20791 22.9011 3.05065 22.7065 2.70345 22.4183C2.53313 22.2807 2.44469 22.1202 2.43159 21.9302C2.32023 20.4268 2.36281 19.0184 2.40539 17.6591C2.42504 17.0498 2.44469 16.4406 2.44797 15.8215C2.59537 15.3302 4.03431 15.1547 4.7156 15.1547Z" fill="white"/>
<path d="M12.5177 16.5566C16.5989 15.8033 16.9854 21.5418 13.3791 21.8301C10.1004 22.0921 9.48465 17.1167 12.5177 16.5566Z" fill="white"/>
<path d="M22.344 16.5566C26.4252 15.8033 26.8117 21.5418 23.2055 21.8301C19.9267 22.0921 19.311 17.1167 22.344 16.5566Z" fill="white"/>
</svg>
