<svg width="26" height="26" viewBox="0 0 26 26" fill="none" xmlns="http://www.w3.org/2000/svg">
<path fill-rule="evenodd" clip-rule="evenodd" d="M13.7659 17.0159C13.5627 17.219 13.2872 17.3331 13 17.3331C12.7127 17.3331 12.4372 17.219 12.234 17.0159L6.10563 10.8875C6.00216 10.7875 5.91963 10.668 5.86285 10.5358C5.80608 10.4036 5.77619 10.2615 5.77494 10.1176C5.77369 9.97381 5.8011 9.83115 5.85557 9.69801C5.91005 9.56488 5.99049 9.44392 6.0922 9.3422C6.19392 9.24049 6.31488 9.16005 6.44801 9.10557C6.58115 9.0511 6.72381 9.02369 6.86765 9.02494C7.01149 9.02619 7.15365 9.05608 7.28582 9.11285C7.41799 9.16963 7.53753 9.25216 7.63746 9.35563L13 14.7181L18.3625 9.35563C18.5668 9.15829 18.8404 9.0491 19.1245 9.05157C19.4085 9.05404 19.6802 9.16797 19.8811 9.36883C20.082 9.56969 20.1959 9.8414 20.1984 10.1254C20.2008 10.4095 20.0916 10.6831 19.8943 10.8875L13.7659 17.0159Z" fill="white"/>
</svg>
